<svg xmlns="http://www.w3.org/2000/svg" width="200" height="200" viewBox="0 0 200 200" version="1.1"><path d="M 76.379 51.143 C 77.175 55.123, 78.958 57.080, 83.282 58.720 L 86.500 59.941 82.645 59.339 C 78.912 58.757, 78.827 58.808, 79.973 60.950 C 80.625 62.167, 82.585 63.784, 84.329 64.542 C 87.036 65.720, 87.169 65.927, 85.242 65.961 C 83.236 65.996, 83.123 66.224, 84.232 68 C 84.919 69.100, 86.048 70, 86.741 70 C 87.433 70, 88 70.605, 88 71.345 C 88 73.544, 91.522 76.110, 93.605 75.430 C 95.090 74.945, 95.189 75.032, 94.064 75.829 C 91.908 77.359, 94.655 80.299, 97.698 79.717 C 99.552 79.363, 99.793 79.544, 98.900 80.621 C 98.027 81.673, 98.461 82.355, 100.885 83.734 C 102.591 84.705, 103.990 85.869, 103.994 86.320 C 104.002 87.337, 98.095 96, 97.393 96 C 97.112 96, 97.160 95.550, 97.500 95 C 98.570 93.269, 95.382 93.916, 93.807 95.750 C 91.550 98.377, 90.839 101, 92.383 101 C 93.110 101, 98.634 98.580, 104.659 95.623 C 117.508 89.318, 120.637 86.217, 121.618 78.822 C 122.013 75.843, 123.039 73.091, 124.090 72.191 C 125.797 70.729, 125.759 70.588, 123.329 69.327 C 119.711 67.450, 116.972 67.677, 114.431 70.065 L 112.232 72.130 104.866 67.263 C 100.815 64.585, 94.883 60.844, 91.685 58.947 C 88.487 57.051, 83.585 53.770, 80.791 51.657 L 75.713 47.813 76.379 51.143 M 25.635 110.073 C 23.613 111.663, 23 113.031, 23 115.950 C 23 120.337, 24.078 121.464, 30.674 123.967 C 36.298 126.102, 37.981 128.114, 36.070 130.416 C 34.219 132.646, 29.385 132.385, 26.923 129.923 C 24.713 127.713, 22 127.973, 22 130.396 C 22 133.072, 26.991 136, 31.553 136 C 37.291 136, 38.794 135.299, 40.616 131.776 C 43.065 127.040, 41.152 123.898, 33.691 120.401 C 29.134 118.266, 27.500 116.972, 27.500 115.500 C 27.500 112.806, 33.387 112.135, 36.031 114.528 C 37.989 116.300, 40 115.786, 40 113.514 C 40 111.267, 34.964 108, 31.500 108 C 29.723 108, 27.084 108.933, 25.635 110.073 M 81 111.345 C 81 113.429, 81.760 115.378, 83.016 116.514 L 85.031 118.338 83.016 120.483 C 81.410 122.193, 81 123.988, 81 129.314 C 81 135.333, 81.199 136, 83 136 C 84.789 136, 85 135.333, 85 129.691 C 85 122.106, 86.406 119.693, 90.549 120.164 L 93.500 120.500 93.792 128.250 C 94.053 135.178, 94.292 136, 96.042 136 C 97.823 136, 98 135.276, 98 128 C 98 121.333, 97.667 119.667, 96 118 C 93.908 115.908, 88.564 115.279, 87.500 117 C 86.053 119.342, 85 117.657, 85 113 C 85 108.667, 84.733 108, 83 108 C 81.399 108, 81 108.667, 81 111.345 M 131.337 109.477 C 130.177 110.289, 128.944 112.089, 128.595 113.477 C 128.247 114.865, 127.391 116, 126.694 116 C 125.996 116, 125.358 116.900, 125.275 118 C 125.189 119.143, 125.741 120, 126.562 120 C 127.693 120, 128 121.709, 128 128 C 128 135.867, 128.042 136, 130.500 136 C 132.958 136, 133 135.867, 133 128 L 133 120 135.975 120 C 138.736 120, 138.882 120.181, 138 122.500 C 136.704 125.908, 137.771 130.461, 140.574 133.486 C 142.315 135.364, 143.916 136, 146.905 136 C 150.920 136, 156 134.303, 156 132.962 C 156 131.495, 153.197 129.872, 152.530 130.951 C 151.641 132.390, 144.677 132.277, 143.200 130.800 C 140.913 128.513, 142.036 128, 149.333 128 C 153.367 128, 156.926 127.741, 157.242 127.425 C 158.383 126.284, 155.980 120.451, 153.462 118.250 C 151.204 116.276, 149.791 116, 141.944 116 C 134.427 116, 133 115.746, 133 114.406 C 133 113.530, 133.900 112.577, 135 112.290 C 137.511 111.633, 137.699 108, 135.223 108 C 134.245 108, 132.496 108.665, 131.337 109.477 M 48.150 118.527 C 44.384 121.696, 43.434 125.709, 45.359 130.316 C 47.164 134.636, 49.545 136, 55.279 136 C 60.340 136, 64.131 133.184, 61.742 131.201 C 60.909 130.509, 59.900 130.452, 58.966 131.042 C 55.690 133.114, 49 131.609, 49 128.800 C 49 128.360, 52.375 128, 56.500 128 L 64 128 64 124.923 C 64 122.856, 63.041 120.887, 61.077 118.923 C 57.272 115.118, 52.379 114.968, 48.150 118.527 M 68 126 C 68 135.333, 68.133 136, 70 136 C 71.772 136, 72 135.333, 72 130.155 C 72 124.096, 73.760 121, 77.206 121 C 78.058 121, 79.282 120.365, 79.926 119.589 C 82.204 116.845, 76.383 115.651, 73.250 118.220 C 72.343 118.964, 72 118.800, 72 117.622 C 72 116.667, 71.178 116, 70 116 C 68.133 116, 68 116.667, 68 126 M 104.923 118.923 C 98.526 125.320, 102.632 136, 111.487 136 C 113.749 136, 116.140 135.460, 116.800 134.800 C 117.733 133.867, 118 133.867, 118 134.800 C 118 135.460, 118.900 136, 120 136 C 121.867 136, 122 135.333, 122 126 C 122 115.839, 121.264 114.136, 118.200 117.200 C 117.267 118.133, 116.733 118.133, 115.800 117.200 C 113.521 114.921, 108.060 115.786, 104.923 118.923 M 161 126 C 161 135.333, 161.133 136, 163 136 C 164.780 136, 165 135.333, 165 129.934 C 165 123.053, 166.215 120, 168.953 120 C 173.482 120, 174 120.883, 174 128.607 C 174 135.923, 174.028 136, 176.628 136 L 179.257 136 178.784 127.835 C 178.382 120.880, 177.976 119.399, 176.045 117.835 C 173.519 115.790, 169.862 115.469, 166.934 117.035 C 165.601 117.749, 165 117.749, 165 117.035 C 165 116.466, 164.100 116, 163 116 C 161.133 116, 161 116.667, 161 126 M 50.571 121.571 C 47.969 124.174, 48.755 125, 53.833 125 C 59.420 125, 60.312 124.452, 58.930 121.869 C 57.689 119.551, 52.767 119.376, 50.571 121.571 M 107.655 121.829 C 104.067 125.793, 106.825 132, 112.174 132 C 117.295 132, 119.966 125.089, 116.171 121.655 C 113.756 119.469, 109.716 119.552, 107.655 121.829 M 143 122 C 141.989 123.889, 142.240 124, 147.500 124 C 152.760 124, 153.011 123.889, 152 122 C 151.249 120.597, 149.906 120, 147.500 120 C 145.094 120, 143.751 120.597, 143 122" stroke="none" fill="#eeeff8" fill-rule="evenodd"/><path d="M -0 100.005 L -0 200.010 100.250 199.755 L 200.500 199.500 200.755 99.750 L 201.010 0 100.505 0 L 0 0 -0 100.005 M 0.481 100.500 C 0.481 155.500, 0.602 178.147, 0.750 150.826 C 0.898 123.506, 0.898 78.506, 0.750 50.826 C 0.602 23.147, 0.481 45.500, 0.481 100.500 M 76.379 51.143 C 77.175 55.123, 78.958 57.080, 83.282 58.720 L 86.500 59.941 82.645 59.339 C 78.912 58.757, 78.827 58.808, 79.973 60.950 C 80.625 62.167, 82.585 63.784, 84.329 64.542 C 87.036 65.720, 87.169 65.927, 85.242 65.961 C 83.236 65.996, 83.123 66.224, 84.232 68 C 84.919 69.100, 86.048 70, 86.741 70 C 87.433 70, 88 70.605, 88 71.345 C 88 73.544, 91.522 76.110, 93.605 75.430 C 95.090 74.945, 95.189 75.032, 94.064 75.829 C 91.908 77.359, 94.655 80.299, 97.698 79.717 C 99.552 79.363, 99.793 79.544, 98.900 80.621 C 98.027 81.673, 98.461 82.355, 100.885 83.734 C 102.591 84.705, 103.990 85.869, 103.994 86.320 C 104.002 87.337, 98.095 96, 97.393 96 C 97.112 96, 97.160 95.550, 97.500 95 C 98.570 93.269, 95.382 93.916, 93.807 95.750 C 91.550 98.377, 90.839 101, 92.383 101 C 93.110 101, 98.634 98.580, 104.659 95.623 C 117.508 89.318, 120.637 86.217, 121.618 78.822 C 122.013 75.843, 123.039 73.091, 124.090 72.191 C 125.797 70.729, 125.759 70.588, 123.329 69.327 C 119.711 67.450, 116.972 67.677, 114.431 70.065 L 112.232 72.130 104.866 67.263 C 100.815 64.585, 94.883 60.844, 91.685 58.947 C 88.487 57.051, 83.585 53.770, 80.791 51.657 L 75.713 47.813 76.379 51.143 M 25.635 110.073 C 23.613 111.663, 23 113.031, 23 115.950 C 23 120.337, 24.078 121.464, 30.674 123.967 C 36.298 126.102, 37.981 128.114, 36.070 130.416 C 34.219 132.646, 29.385 132.385, 26.923 129.923 C 24.713 127.713, 22 127.973, 22 130.396 C 22 133.072, 26.991 136, 31.553 136 C 37.291 136, 38.794 135.299, 40.616 131.776 C 43.065 127.040, 41.152 123.898, 33.691 120.401 C 29.134 118.266, 27.500 116.972, 27.500 115.500 C 27.500 112.806, 33.387 112.135, 36.031 114.528 C 37.989 116.300, 40 115.786, 40 113.514 C 40 111.267, 34.964 108, 31.500 108 C 29.723 108, 27.084 108.933, 25.635 110.073 M 81 111.345 C 81 113.429, 81.760 115.378, 83.016 116.514 L 85.031 118.338 83.016 120.483 C 81.410 122.193, 81 123.988, 81 129.314 C 81 135.333, 81.199 136, 83 136 C 84.789 136, 85 135.333, 85 129.691 C 85 122.106, 86.406 119.693, 90.549 120.164 L 93.500 120.500 93.792 128.250 C 94.053 135.178, 94.292 136, 96.042 136 C 97.823 136, 98 135.276, 98 128 C 98 121.333, 97.667 119.667, 96 118 C 93.908 115.908, 88.564 115.279, 87.500 117 C 86.053 119.342, 85 117.657, 85 113 C 85 108.667, 84.733 108, 83 108 C 81.399 108, 81 108.667, 81 111.345 M 131.337 109.477 C 130.177 110.289, 128.944 112.089, 128.595 113.477 C 128.247 114.865, 127.391 116, 126.694 116 C 125.996 116, 125.358 116.900, 125.275 118 C 125.189 119.143, 125.741 120, 126.562 120 C 127.693 120, 128 121.709, 128 128 C 128 135.867, 128.042 136, 130.500 136 C 132.958 136, 133 135.867, 133 128 L 133 120 135.975 120 C 138.736 120, 138.882 120.181, 138 122.500 C 136.704 125.908, 137.771 130.461, 140.574 133.486 C 142.315 135.364, 143.916 136, 146.905 136 C 150.920 136, 156 134.303, 156 132.962 C 156 131.495, 153.197 129.872, 152.530 130.951 C 151.641 132.390, 144.677 132.277, 143.200 130.800 C 140.913 128.513, 142.036 128, 149.333 128 C 153.367 128, 156.926 127.741, 157.242 127.425 C 158.383 126.284, 155.980 120.451, 153.462 118.250 C 151.204 116.276, 149.791 116, 141.944 116 C 134.427 116, 133 115.746, 133 114.406 C 133 113.530, 133.900 112.577, 135 112.290 C 137.511 111.633, 137.699 108, 135.223 108 C 134.245 108, 132.496 108.665, 131.337 109.477 M 48.150 118.527 C 44.384 121.696, 43.434 125.709, 45.359 130.316 C 47.164 134.636, 49.545 136, 55.279 136 C 60.340 136, 64.131 133.184, 61.742 131.201 C 60.909 130.509, 59.900 130.452, 58.966 131.042 C 55.690 133.114, 49 131.609, 49 128.800 C 49 128.360, 52.375 128, 56.500 128 L 64 128 64 124.923 C 64 122.856, 63.041 120.887, 61.077 118.923 C 57.272 115.118, 52.379 114.968, 48.150 118.527 M 68 126 C 68 135.333, 68.133 136, 70 136 C 71.772 136, 72 135.333, 72 130.155 C 72 124.096, 73.760 121, 77.206 121 C 78.058 121, 79.282 120.365, 79.926 119.589 C 82.204 116.845, 76.383 115.651, 73.250 118.220 C 72.343 118.964, 72 118.800, 72 117.622 C 72 116.667, 71.178 116, 70 116 C 68.133 116, 68 116.667, 68 126 M 104.923 118.923 C 98.526 125.320, 102.632 136, 111.487 136 C 113.749 136, 116.140 135.460, 116.800 134.800 C 117.733 133.867, 118 133.867, 118 134.800 C 118 135.460, 118.900 136, 120 136 C 121.867 136, 122 135.333, 122 126 C 122 115.839, 121.264 114.136, 118.200 117.200 C 117.267 118.133, 116.733 118.133, 115.800 117.200 C 113.521 114.921, 108.060 115.786, 104.923 118.923 M 161 126 C 161 135.333, 161.133 136, 163 136 C 164.780 136, 165 135.333, 165 129.934 C 165 123.053, 166.215 120, 168.953 120 C 173.482 120, 174 120.883, 174 128.607 C 174 135.923, 174.028 136, 176.628 136 L 179.257 136 178.784 127.835 C 178.382 120.880, 177.976 119.399, 176.045 117.835 C 173.519 115.790, 169.862 115.469, 166.934 117.035 C 165.601 117.749, 165 117.749, 165 117.035 C 165 116.466, 164.100 116, 163 116 C 161.133 116, 161 116.667, 161 126 M 50.571 121.571 C 47.969 124.174, 48.755 125, 53.833 125 C 59.420 125, 60.312 124.452, 58.930 121.869 C 57.689 119.551, 52.767 119.376, 50.571 121.571 M 107.655 121.829 C 104.067 125.793, 106.825 132, 112.174 132 C 117.295 132, 119.966 125.089, 116.171 121.655 C 113.756 119.469, 109.716 119.552, 107.655 121.829 M 143 122 C 141.989 123.889, 142.240 124, 147.500 124 C 152.760 124, 153.011 123.889, 152 122 C 151.249 120.597, 149.906 120, 147.500 120 C 145.094 120, 143.751 120.597, 143 122" stroke="none" fill="#0504f9" fill-rule="evenodd"/></svg>